<svg width="19" height="20" viewBox="0 0 19 20" fill="none" xmlns="http://www.w3.org/2000/svg">
<g clip-path="url(#clip0_1_2316)">
<path d="M2.09485 4.71175L7.38311 2.4447L11.9159 4.71175L16.6776 2.67065C16.7351 2.646 16.7978 2.63602 16.8601 2.64159C16.9224 2.64716 16.9823 2.66812 17.0345 2.70257C17.0867 2.73703 17.1295 2.78392 17.1591 2.83902C17.1888 2.89411 17.2042 2.95571 17.2042 3.01826V15.2913L11.9159 17.5583L7.38311 15.2913L2.62141 17.3324C2.56393 17.357 2.50123 17.367 2.43894 17.3614C2.37665 17.3559 2.31671 17.3349 2.26452 17.3005C2.21232 17.266 2.16949 17.2191 2.13988 17.164C2.11027 17.1089 2.09479 17.0473 2.09485 16.9848V4.71175ZM11.9159 15.8686V6.35611L11.8668 6.37727L7.38311 4.13441V13.6469L7.43222 13.6258L11.9159 15.8686Z" fill="#2B2B2B"/>
</g>
<defs>
<clipPath id="clip0_1_2316">
<rect width="18.1312" height="18.1364" fill="white" transform="translate(0.583862 0.93335)"/>
</clipPath>
</defs>
</svg>
