<svg width="19" height="19" viewBox="0 0 19 19" fill="none" xmlns="http://www.w3.org/2000/svg">
<g clip-path="url(#clip0_1_2338)">
<path d="M4.81296 1.58752H13.8786C14.0789 1.58752 14.2711 1.66696 14.4127 1.80836C14.5544 1.94975 14.634 2.14153 14.634 2.34149V15.9129C14.634 16.1129 14.5544 16.3047 14.4127 16.4461C14.2711 16.5875 14.0789 16.6669 13.8786 16.6669H4.81296C4.6126 16.6669 4.42044 16.5875 4.27877 16.4461C4.13709 16.3047 4.0575 16.1129 4.0575 15.9129V2.34149C4.0575 2.14153 4.13709 1.94975 4.27877 1.80836C4.42044 1.66696 4.6126 1.58752 4.81296 1.58752ZM9.34576 12.897C9.1454 12.897 8.95324 12.9765 8.81156 13.1179C8.66989 13.2593 8.59029 13.4511 8.59029 13.651C8.59029 13.851 8.66989 14.0428 8.81156 14.1842C8.95324 14.3255 9.1454 14.405 9.34576 14.405C9.54612 14.405 9.73828 14.3255 9.87995 14.1842C10.0216 14.0428 10.1012 13.851 10.1012 13.651C10.1012 13.4511 10.0216 13.2593 9.87995 13.1179C9.73828 12.9765 9.54612 12.897 9.34576 12.897Z" fill="#2B2B2B"/>
</g>
<defs>
<clipPath id="clip0_1_2338">
<rect width="18.1312" height="18.0952" fill="white" transform="translate(0.280151 0.0795898)"/>
</clipPath>
</defs>
</svg>
