<svg width="25" height="25" viewBox="0 0 25 25" fill="none" xmlns="http://www.w3.org/2000/svg">
<path d="M12.5 1.77429C6.70156 1.77429 2 6.47585 2 12.2743C2 18.0727 6.70156 22.7743 12.5 22.7743C18.2984 22.7743 23 18.0727 23 12.2743C23 6.47585 18.2984 1.77429 12.5 1.77429ZM12.5 20.993C7.68594 20.993 3.78125 17.0884 3.78125 12.2743C3.78125 7.46023 7.68594 3.55554 12.5 3.55554C17.3141 3.55554 21.2188 7.46023 21.2188 12.2743C21.2188 17.0884 17.3141 20.993 12.5 20.993ZM12.6312 8.50789C13.8734 8.50789 14.7172 9.30007 14.8109 10.4626C14.818 10.561 14.9 10.636 14.9984 10.636H16.3273C16.3883 10.636 16.4375 10.5868 16.4375 10.5259C16.4375 8.49382 14.8344 7.07117 12.6242 7.07117C10.0484 7.07117 8.5625 8.81023 8.5625 11.6837V12.9094C8.5625 15.7618 10.0484 17.4774 12.6242 17.4774C14.8273 17.4774 16.4375 16.0993 16.4375 14.1634C16.4375 14.1024 16.3883 14.0532 16.3273 14.0532H14.9961C14.8977 14.0532 14.818 14.1282 14.8086 14.2243C14.7102 15.3048 13.8687 16.0477 12.6289 16.0477C11.0984 16.0477 10.2359 14.9251 10.2359 12.9165V11.6837C10.2383 9.6446 11.1031 8.50789 12.6312 8.50789Z" fill="#767676"/>
</svg>
