<svg width="19" height="19" viewBox="0 0 19 19" fill="none" xmlns="http://www.w3.org/2000/svg">
<g clip-path="url(#clip0_1_2348)">
<path d="M1.79114 4.43659L7.0794 2.17468L11.6122 4.43659L16.3739 2.40012C16.4314 2.37553 16.4941 2.36556 16.5564 2.37112C16.6187 2.37668 16.6786 2.39759 16.7308 2.43197C16.783 2.46635 16.8258 2.51313 16.8554 2.5681C16.885 2.62308 16.9005 2.68453 16.9005 2.74694V14.9921L11.6122 17.254L7.0794 14.9921L2.3177 17.0286C2.26022 17.0532 2.19752 17.0632 2.13523 17.0576C2.07294 17.052 2.013 17.0311 1.96081 16.9968C1.90861 16.9624 1.86578 16.9156 1.83617 16.8606C1.80656 16.8057 1.79108 16.7442 1.79114 16.6818V4.43659ZM11.6122 15.5682V6.07722L11.5631 6.09833L7.0794 3.86056V13.3515L7.1285 13.3304L11.6122 15.5682Z" fill="#2B2B2B"/>
</g>
<defs>
<clipPath id="clip0_1_2348">
<rect width="18.1312" height="18.0952" fill="white" transform="translate(0.280151 0.666748)"/>
</clipPath>
</defs>
</svg>
