<svg width="19" height="19" viewBox="0 0 19 19" fill="none" xmlns="http://www.w3.org/2000/svg">
<g clip-path="url(#clip0_1_2306)">
<path d="M2.85031 2.92773H16.4487C16.6491 2.92773 16.8412 3.00735 16.9829 3.14907C17.1246 3.29079 17.2042 3.483 17.2042 3.68342V15.7743C17.2042 15.9747 17.1246 16.167 16.9829 16.3087C16.8412 16.4504 16.6491 16.53 16.4487 16.53H2.85031C2.64995 16.53 2.4578 16.4504 2.31612 16.3087C2.17444 16.167 2.09485 15.9747 2.09485 15.7743V3.68342C2.09485 3.483 2.17444 3.29079 2.31612 3.14907C2.4578 3.00735 2.64995 2.92773 2.85031 2.92773ZM9.69484 9.48932L4.85079 5.37463L3.87246 6.52629L9.70466 11.4798L15.4318 6.52251L14.4437 5.37917L9.69559 9.48932H9.69484Z" fill="#2B2B2B"/>
</g>
<defs>
<clipPath id="clip0_1_2306">
<rect width="18.1312" height="18.1364" fill="white" transform="translate(0.583862 0.660645)"/>
</clipPath>
</defs>
</svg>
