<svg width="19" height="19" viewBox="0 0 19 19" fill="none" xmlns="http://www.w3.org/2000/svg">
<g clip-path="url(#clip0_1_2328)">
<path d="M2.5466 3.13501H16.145C16.3454 3.13501 16.5375 3.21445 16.6792 3.35584C16.8209 3.49724 16.9005 3.68901 16.9005 3.88898V15.9525C16.9005 16.1524 16.8209 16.3442 16.6792 16.4856C16.5375 16.627 16.3454 16.7064 16.145 16.7064H2.5466C2.34624 16.7064 2.15409 16.627 2.01241 16.4856C1.87073 16.3442 1.79114 16.1524 1.79114 15.9525V3.88898C1.79114 3.68901 1.87073 3.49724 2.01241 3.35584C2.15409 3.21445 2.34624 3.13501 2.5466 3.13501ZM9.39113 9.68172L4.54708 5.57636L3.56875 6.72541L9.40095 11.6677L15.1281 6.72164L14.14 5.58088L9.39188 9.68172H9.39113Z" fill="#2B2B2B"/>
</g>
<defs>
<clipPath id="clip0_1_2328">
<rect width="18.1312" height="18.0952" fill="white" transform="translate(0.280151 0.873047)"/>
</clipPath>
</defs>
</svg>
